<svg xmlns="http://www.w3.org/2000/svg" viewBox="0 0 100 100" width="100" height="100">
  <g stroke="#1a1a1a" stroke-width="2.8" stroke-linecap="round" stroke-linejoin="round" fill="none">
    <circle cx="50" cy="50" r="18"/>
    <circle cx="50" cy="50" r="7"/>
    <rect x="46" y="15" width="8" height="14" rx="2"/>
    <rect x="46" y="71" width="8" height="14" rx="2"/>
    <rect x="15" y="46" width="14" height="8" rx="2"/>
    <rect x="71" y="46" width="14" height="8" rx="2"/>
    <rect x="24" y="24" width="8" height="14" rx="2" transform="rotate(45,28,31)"/>
    <rect x="68" y="24" width="8" height="14" rx="2" transform="rotate(-45,72,31)"/>
    <rect x="24" y="62" width="8" height="14" rx="2" transform="rotate(-45,28,69)"/>
    <rect x="68" y="62" width="8" height="14" rx="2" transform="rotate(45,72,69)"/>
  </g>
</svg>