<?xml version="1.0" encoding="UTF-8"?>
<!-- Generator: Adobe Illustrator 27.4.0, SVG Export Plug-In . SVG Version: 6.00 Build 0)  -->
<svg xmlns="http://www.w3.org/2000/svg" xmlns:xlink="http://www.w3.org/1999/xlink" version="1.1" id="Layer_1" x="0px" y="0px" viewBox="0 0 319.5 104.9" style="enable-background:new 0 0 319.5 104.9;" xml:space="preserve">
<style type="text/css">
	.st0{fill:#002536;}
	.st1{enable-background:new    ;}
	.st2{fill:#B99F7A;}
	.st3{fill:#B3B3B4;}
</style>
<path class="st0" d="M99.9,62.6c-0.1,0-0.2-0.1-0.2-0.2V49.8c0-0.1,0.1-0.2,0.2-0.2h8.5c0.1,0,0.2,0.1,0.2,0.2v0.9  c0,0.1-0.1,0.2-0.2,0.2h-7.2c-0.1,0-0.2,0.1-0.2,0.2v4.6c0,0.1,0.1,0.2,0.2,0.2h6.9c0.1,0,0.2,0.1,0.2,0.2V57c0,0.1-0.1,0.2-0.2,0.2  h-6.9c-0.1,0-0.2,0.1-0.2,0.2v5.2c0,0.1-0.1,0.2-0.2,0.2L99.9,62.6z"></path>
<path class="st0" d="M114,62.6c-0.1,0-0.2-0.1-0.2-0.2V49.8c0-0.1,0.1-0.2,0.2-0.2h1c0.1,0,0.2,0.1,0.2,0.2v12.6  c0,0.1-0.1,0.2-0.2,0.2C115,62.6,114,62.6,114,62.6z"></path>
<path class="st0" d="M130.2,59.8c0.1,0.1,0.2,0.1,0.2,0l0.1-0.1l-0.1-3.8l0,0v-6c0-0.1,0.1-0.2,0.2-0.2h1c0.1,0,0.2,0.1,0.2,0.2  v12.6c0,0.1-0.1,0.2-0.2,0.2H131c-0.1,0-0.1,0-0.1-0.1l-8-10c-0.1-0.1-0.2-0.1-0.2,0l-0.1,0.1V56l0,0v6.4c0,0.1-0.1,0.2-0.2,0.2h-1  c-0.1,0-0.2-0.1-0.2-0.2V49.8c0-0.1,0.1-0.2,0.2-0.2h0.6c0.1,0,0.1,0,0.1,0.1L130.2,59.8z"></path>
<path class="st0" d="M146.7,59.7c0-0.1-0.1-0.1-0.1-0.1h-7.3c-0.1,0-0.1,0-0.1,0.1l-1.2,2.8c0,0.1-0.1,0.1-0.1,0.1h-1  c-0.1,0-0.2-0.1-0.2-0.2c0,0,0,0,0-0.1l5.6-12.6c0-0.1,0.1-0.1,0.1-0.1h1.1c0.1,0,0.1,0,0.1,0.1l5.6,12.6c0,0.1,0,0.2-0.1,0.2  c0,0,0,0-0.1,0h-1c-0.1,0-0.1,0-0.1-0.1L146.7,59.7z M139.8,58.2c0,0.1,0,0.2,0.1,0.2c0,0,0,0,0.1,0h6c0.1,0,0.2-0.1,0.2-0.2  c0,0,0,0,0-0.1l-3-6.8c0-0.1-0.1-0.1-0.2-0.1c0,0-0.1,0-0.1,0.1L139.8,58.2z"></path>
<path class="st0" d="M163,59.8c0.1,0.1,0.2,0.1,0.2,0l0.1-0.1l-0.1-3.8l0,0v-6c0-0.1,0.1-0.2,0.2-0.2h1c0.1,0,0.2,0.1,0.2,0.2v12.6  c0,0.1-0.1,0.2-0.2,0.2h-0.5c-0.1,0-0.1,0-0.1-0.1l-8-10c-0.1-0.1-0.2-0.1-0.2,0l-0.1,0.1V56l0,0v6.4c0,0.1-0.1,0.2-0.2,0.2h-1  c-0.1,0-0.2-0.1-0.2-0.2V49.8c0-0.1,0.1-0.2,0.2-0.2h0.6c0.1,0,0.1,0,0.1,0.1L163,59.8z"></path>
<path class="st0" d="M181.2,60.7c0.1,0.1,0.1,0.2,0,0.2c-1.2,1.2-2.9,1.9-4.6,1.8c-4.5,0-6.7-3-6.7-6.6s2.2-6.7,6.7-6.7  c1.7,0,3.3,0.6,4.5,1.8c0.1,0.1,0.1,0.2,0,0.2l-0.6,0.6c-0.1,0.1-0.2,0.1-0.2,0c-1-0.9-2.3-1.4-3.7-1.4c-2.9-0.1-5.3,2.1-5.4,5  c0,0.2,0,0.4,0,0.5c-0.2,2.8,1.9,5.2,4.7,5.4c0.2,0,0.5,0,0.7,0c1.4,0,2.7-0.5,3.8-1.5c0.1-0.1,0.2-0.1,0.2,0L181.2,60.7z"></path>
<path class="st0" d="M186.6,62.6c-0.1,0-0.2-0.1-0.2-0.2V49.8c0-0.1,0.1-0.2,0.2-0.2h1c0.1,0,0.2,0.1,0.2,0.2v12.6  c0,0.1-0.1,0.2-0.2,0.2C187.6,62.6,186.6,62.6,186.6,62.6z"></path>
<path class="st0" d="M202.7,59.7c0-0.1-0.1-0.1-0.1-0.1h-7.3c-0.1,0-0.1,0-0.1,0.1l-1.2,2.8c0,0.1-0.1,0.1-0.1,0.1h-1  c-0.1,0-0.2-0.1-0.2-0.2c0,0,0,0,0-0.1l5.6-12.6c0-0.1,0.1-0.1,0.1-0.1h1.1c0.1,0,0.1,0,0.1,0.1l5.6,12.6c0,0.1,0,0.2-0.1,0.2  c0,0,0,0-0.1,0h-1c-0.1,0-0.1,0-0.1-0.1L202.7,59.7z M195.8,58.2c0,0.1,0,0.2,0.1,0.2c0,0,0,0,0.1,0h6c0.1,0,0.2-0.1,0.2-0.2  c0,0,0,0,0-0.1l-3-6.8c0-0.1-0.1-0.1-0.2-0.1c0,0-0.1,0-0.1,0.1L195.8,58.2z"></path>
<path class="st0" d="M211.3,49.7c0.1,0,0.2,0.1,0.2,0.2v11.4c0,0.1,0.1,0.2,0.2,0.2h6.9c0.1,0,0.2,0.1,0.2,0.2v0.9  c0,0.1-0.1,0.2-0.2,0.2h-8.1c-0.1,0-0.2-0.1-0.2-0.2V49.8c0-0.1,0.1-0.2,0.2-0.2L211.3,49.7z"></path>
<path class="st0" d="M239.4,52.1c-0.1,0.1-0.2,0.1-0.2,0c-1.1-0.9-2.4-1.5-3.9-1.4c-2.9-0.1-5.3,2.1-5.4,5c0,0.2,0,0.3,0,0.5  c-0.1,2.8,2,5.2,4.8,5.3c0.2,0,0.4,0,0.6,0c1.3,0,2.7-0.5,3.7-1.3l0.1-0.1v-3c0-0.1-0.1-0.2-0.2-0.2H235c-0.1,0-0.2-0.1-0.2-0.2  v-0.9c0-0.1,0.1-0.2,0.2-0.2h5.1c0.1,0,0.2,0.1,0.2,0.2v4.8v0.1c-1.3,1.4-3,2.1-4.9,2.1c-4.5,0-6.7-3.1-6.7-6.6  c0-3.9,2.6-6.8,6.7-6.7c1.7,0,3.4,0.6,4.6,1.8c0.1,0.1,0.1,0.2,0,0.2L239.4,52.1z"></path>
<path class="st0" d="M256.2,62.3c0.1,0.1,0.1,0.2,0,0.2h-0.1h-1.2c-0.1,0-0.1,0-0.1-0.1l-4.2-4.7l-0.1-0.1h-3.1  c-0.1,0-0.2,0.1-0.2,0.2v4.4c0,0.1-0.1,0.2-0.2,0.2h-1c-0.1,0-0.2-0.1-0.2-0.2V49.8c0-0.1,0.1-0.2,0.2-0.2h5.6  c2.2-0.2,4.1,1.5,4.3,3.7c0,0.1,0,0.3,0,0.4c0.1,2.1-1.4,3.8-3.5,3.9h-0.1c-0.1,0-0.2,0.1-0.2,0.2v0.1L256.2,62.3z M247.3,50.9  c-0.1,0-0.2,0.1-0.2,0.2v5.4c0,0.1,0.1,0.2,0.2,0.2h4.3c1.6,0.1,3-1.1,3.1-2.7s-1.1-3-2.7-3.1c-0.1,0-0.2,0-0.3,0L247.3,50.9z"></path>
<path class="st0" d="M273.8,56.2c0,3.4-2.2,6.7-6.5,6.7s-6.6-3.3-6.6-6.7c0-3.6,2.4-6.7,6.6-6.7C271.6,49.4,273.8,52.8,273.8,56.2z   M267.2,61.6c3.5,0.1,5.2-2.7,5.2-5.4s-1.7-5.5-5.2-5.5s-5.3,2.5-5.2,5.5C262,59,263.7,61.7,267.2,61.6z"></path>
<path class="st0" d="M289.1,49.7c0.1,0,0.2,0.1,0.2,0.2l0,0v7.8c0.1,2.8-2.1,5.2-4.9,5.4c-2.8,0.1-5.2-2.1-5.4-4.9  c0-0.2,0-0.3,0-0.5v-7.8c0-0.1,0.1-0.2,0.2-0.2l0,0h1c0.1,0,0.2,0.1,0.2,0.2l0,0v7.8c-0.1,2.1,1.4,3.8,3.5,4c0.1,0,0.3,0,0.4,0  c2,0.1,3.7-1.5,3.8-3.5c0-0.2,0-0.3,0-0.5v-7.8c0-0.1,0.1-0.2,0.2-0.2l0,0H289.1z"></path>
<path class="st0" d="M296.7,58.3c-0.1,0-0.2,0.1-0.2,0.2l0,0v4c0,0.1-0.1,0.2-0.2,0.2l0,0h-1c-0.1,0-0.2-0.1-0.2-0.2l0,0V49.8  c0-0.1,0.1-0.2,0.2-0.2l0,0h5.6c5.8,0,5.8,8.6,0,8.6L296.7,58.3z M296.6,56.9c0,0.1,0.1,0.2,0.2,0.2l0,0h4.3c4,0,4-6.2,0-6.2h-4.3  c-0.1,0-0.2,0.1-0.2,0.2l0,0V56.9z"></path>
<path class="st0" d="M103.6,36.1c-0.1,0.2-0.2,0.3-0.4,0.3h-6.7c-0.2,0-0.3-0.1-0.4-0.3L83.3,5.2c-0.1-0.2,0-0.5,0.2-0.5  c0.1,0,0.1,0,0.2,0h7c0.2,0,0.3,0.1,0.4,0.3l8.4,22c0.1,0.2,0.3,0.3,0.5,0.3c0.1,0,0.2-0.1,0.3-0.3l8.4-22c0.1-0.2,0.2-0.3,0.4-0.3  h7c0.2,0,0.4,0.2,0.4,0.4c0,0.1,0,0.1,0,0.2L103.6,36.1z"></path>
<path class="st0" d="M137.1,31c-0.1-0.2-0.2-0.3-0.4-0.3H121c-0.2,0-0.3,0.1-0.4,0.3l-2.1,4.9c-0.1,0.2-0.2,0.3-0.4,0.3h-6.7  c-0.2,0-0.4-0.2-0.4-0.4c0-0.1,0-0.1,0-0.2l13.8-30.8c0.1-0.2,0.2-0.2,0.4-0.2h7.1c0.2,0,0.3,0.1,0.4,0.2l13.8,30.8  c0.1,0.2,0,0.5-0.2,0.6c-0.1,0-0.1,0-0.2,0h-6.7c-0.2,0-0.3-0.1-0.4-0.3L137.1,31z M129.3,12.7c-0.1-0.2-0.3-0.3-0.5-0.2  c-0.1,0-0.2,0.1-0.2,0.2L123.7,24c-0.1,0.2,0,0.5,0.2,0.6c0.1,0,0.1,0,0.2,0h9.6c0.2,0,0.4-0.2,0.4-0.5V24L129.3,12.7z"></path>
<path class="st0" d="M156.9,4.6c0.2,0,0.4,0.2,0.4,0.4v24.3c0,0.2,0.2,0.4,0.4,0.4h15c0.2,0,0.4,0.2,0.4,0.4v5.6  c0,0.2-0.2,0.4-0.4,0.4h-22c-0.2,0-0.4-0.2-0.4-0.4V5c0-0.2,0.2-0.4,0.4-0.4H156.9z"></path>
<path class="st0" d="M203.4,15.5c0-0.2-0.2-0.4-0.4-0.4c-0.1,0-0.3,0.1-0.3,0.2l-8.9,11.2c-0.1,0.1-0.2,0.2-0.3,0.2h-0.9  c-0.1,0-0.3-0.1-0.3-0.2l-8.6-11.2c-0.1-0.2-0.4-0.2-0.6-0.1c-0.1,0.1-0.2,0.2-0.2,0.4V36c0,0.2-0.2,0.4-0.4,0.4h-6.2  c-0.2,0-0.4-0.2-0.4-0.4V5.1c0-0.2,0.2-0.4,0.4-0.4h7.4c0.1,0,0.3,0.1,0.3,0.2l8.8,11.5c0.1,0.2,0.4,0.2,0.6,0.1l0.1-0.1l8.8-11.5  c0.1-0.1,0.2-0.2,0.3-0.2h7.3c0.2,0,0.4,0.2,0.4,0.4v30.8c0,0.2-0.2,0.4-0.4,0.4h-6.2c-0.2,0-0.4-0.2-0.4-0.4L203.4,15.5z"></path>
<path class="st0" d="M239.6,31c-0.1-0.2-0.2-0.3-0.4-0.3h-15.7c-0.2,0-0.3,0.1-0.4,0.3l-2.1,5c-0.1,0.2-0.2,0.3-0.4,0.3H214  c-0.2,0-0.4-0.2-0.4-0.4c0-0.1,0-0.1,0-0.2l13.8-30.8c0.1-0.2,0.2-0.2,0.4-0.2h7.1c0.2,0,0.3,0.1,0.4,0.2l13.8,30.7  c0.1,0.2,0,0.5-0.2,0.6c-0.1,0-0.1,0-0.2,0H242c-0.2,0-0.3-0.1-0.4-0.3L239.6,31z M231.8,12.7c-0.1-0.2-0.3-0.3-0.5-0.2  c-0.1,0-0.2,0.1-0.2,0.2L226.2,24c-0.1,0.2,0,0.5,0.2,0.6c0.1,0,0.1,0,0.2,0h9.6c0.2,0,0.4-0.2,0.4-0.4c0-0.1,0-0.1,0-0.2  L231.8,12.7z"></path>
<path class="st0" d="M280.3,35.8c0,0.2-0.2,0.4-0.4,0.4h-7.2c-0.1,0-0.3-0.1-0.3-0.2l-7.9-10c-0.1-0.1-0.2-0.2-0.3-0.2h-4.5  c-0.2,0-0.4,0.2-0.4,0.4l0,0v9.5c0,0.2-0.2,0.4-0.4,0.4l0,0h-6.2c-0.2,0-0.4-0.2-0.4-0.4l0,0V5c0-0.2,0.2-0.4,0.4-0.4l0,0h14.6  c7.6,0,11.7,5.1,11.7,10.6c0,4-1.2,7.5-6.8,9.7c-0.2,0.1-0.3,0.3-0.2,0.5c0,0,0,0.1,0.1,0.1l8.2,9.9  C280.3,35.6,280.3,35.7,280.3,35.8z M259.7,10.7c-0.2,0-0.4,0.2-0.4,0.4l0,0v8.4c0,0.2,0.2,0.4,0.4,0.4l0,0h7.6  c2.4,0.2,4.5-1.7,4.7-4.1c0-0.1,0-0.2,0-0.3c0.1-2.6-1.9-4.7-4.5-4.8c-0.1,0-0.2,0-0.2,0L259.7,10.7z"></path>
<path class="st0" d="M310.4,4.8L310.4,4.8l-12.6,14.9c-0.1,0.2-0.1,0.4,0,0.5l13.6,15.5c0.1,0.1,0.1,0.3,0,0.4  c-0.1,0.1-0.1,0.1-0.2,0.1h-8c-0.1,0-0.2-0.1-0.3-0.2L292,23.6c-0.2-0.2-0.4-0.2-0.6,0c-0.1,0.1-0.2,0.2-0.1,0.3v11.9  c0,0.2-0.2,0.4-0.4,0.4l0,0h-6.2c-0.2,0-0.4-0.2-0.4-0.4l0,0V5c0-0.2,0.2-0.4,0.4-0.4l0,0h6.2c0.2,0,0.4,0.2,0.4,0.4l0,0v11.4  c0,0.2,0.2,0.4,0.4,0.4c0.1,0,0.3-0.1,0.3-0.2l9.6-12c0.1-0.1,0.2-0.2,0.3-0.2h8.2c0.1,0,0.1,0,0.2,0.1  C310.4,4.7,310.4,4.7,310.4,4.8z"></path>
<path class="st0" d="M32.5,46.5c0.1,0.3,0.5,0.4,0.8,0.3c0.1-0.1,0.2-0.1,0.3-0.3L53.3,7.6c0.1-0.3,0.1-0.6-0.2-0.7  c-11.9-9.1-28.4-9.1-40.3,0c-0.2,0.2-0.3,0.5-0.2,0.7L32.5,46.5z"></path>
<path class="st0" d="M37.4,64.8c-0.1,0.3,0,0.6,0.3,0.8c0.1,0.1,0.2,0.1,0.3,0.1C56,62.9,68.4,46,65.6,28c-0.5-3.4-1.6-6.8-3.2-9.9  c-0.1-0.3-0.5-0.4-0.8-0.3c-0.1,0.1-0.2,0.1-0.3,0.3L37.4,64.8z"></path>
<path class="st0" d="M4.6,18.1c-0.1-0.3-0.5-0.4-0.8-0.3c-0.1,0.1-0.2,0.1-0.3,0.3c-8.2,16.3-1.7,36.1,14.6,44.3  c3.1,1.6,6.4,2.6,9.9,3.2c0.3,0,0.6-0.2,0.7-0.5c0-0.1,0-0.2-0.1-0.3L4.6,18.1z"></path>
<path class="st0" d="M319.5,52.8c0,2.7-2.2,4.9-4.9,4.9c-2.7,0-4.9-2.2-4.9-4.9s2.2-4.9,4.9-4.9c2.6-0.1,4.8,1.9,4.9,4.4  C319.5,52.5,319.5,52.7,319.5,52.8z M314.6,57c2.3,0.1,4.2-1.7,4.3-4c0.1-2.3-1.7-4.2-4-4.3s-4.2,1.7-4.3,4c0,0.1,0,0.1,0,0.2  c-0.2,2.1,1.5,4,3.6,4.1C314.4,57,314.5,57,314.6,57z M317,55.2v0.2h-0.9l-1.6-1.8h-1v1.8h-0.8v-5.1h2.3c0.9-0.1,1.7,0.5,1.8,1.4  c0.1,0.9-0.5,1.7-1.4,1.8L317,55.2z M313.6,51v1.8h1.5c0.5,0.1,1-0.3,1-0.8c0.1-0.5-0.3-1-0.8-1c-0.1,0-0.1,0-0.2,0H313.6z"></path>
<g class="st1">
	<path class="st2" d="M100.1,84.9h2.6c1.2,0,2,0.2,2.5,0.5c0.5,0.3,0.8,0.9,0.8,1.6c0,0.5-0.1,0.9-0.3,1.2c-0.2,0.3-0.5,0.5-0.9,0.6   v0.1c0.5,0.1,0.9,0.3,1.1,0.7c0.2,0.3,0.3,0.7,0.3,1.3c0,0.7-0.3,1.3-0.8,1.8s-1.3,0.6-2.2,0.6h-3.1V84.9z M101.8,88.1h1   c0.5,0,0.8-0.1,1-0.2c0.2-0.1,0.3-0.4,0.3-0.7c0-0.3-0.1-0.5-0.3-0.7c-0.2-0.1-0.6-0.2-1.1-0.2h-0.9V88.1z M101.8,89.5v2.1h1.1   c0.5,0,0.8-0.1,1.1-0.3c0.2-0.2,0.3-0.5,0.3-0.8c0-0.7-0.5-1-1.5-1H101.8z"></path>
	<path class="st2" d="M109.9,89.9v3.2h-1.7v-8.2h2.4c1.1,0,1.9,0.2,2.5,0.6c0.5,0.4,0.8,1,0.8,1.9c0,0.5-0.1,0.9-0.4,1.3   c-0.3,0.4-0.6,0.7-1.1,0.9c1.2,1.8,2,3,2.4,3.6h-1.9l-2-3.2H109.9z M109.9,88.5h0.6c0.6,0,1-0.1,1.2-0.3c0.3-0.2,0.4-0.5,0.4-0.9   c0-0.4-0.1-0.7-0.4-0.8s-0.7-0.2-1.2-0.2h-0.5V88.5z"></path>
	<path class="st2" d="M116.1,93.1v-8.2h1.7v8.2H116.1z"></path>
	<path class="st2" d="M127.5,93.1h-2.2l-3.6-6.2h-0.1c0.1,1.1,0.1,1.9,0.1,2.3v3.9h-1.6v-8.2h2.2L126,91h0c-0.1-1.1-0.1-1.8-0.1-2.3   v-3.9h1.6V93.1z"></path>
	<path class="st2" d="M133,88.4h3.3v4.3c-0.5,0.2-1,0.3-1.5,0.4c-0.5,0.1-0.9,0.1-1.4,0.1c-1.2,0-2.2-0.4-2.8-1.1   c-0.7-0.7-1-1.8-1-3.1c0-1.3,0.4-2.4,1.1-3.1c0.8-0.7,1.8-1.1,3.2-1.1c0.8,0,1.7,0.2,2.4,0.5l-0.6,1.4c-0.6-0.3-1.2-0.4-1.9-0.4   c-0.8,0-1.4,0.3-1.8,0.8c-0.5,0.5-0.7,1.2-0.7,2c0,0.9,0.2,1.6,0.5,2c0.4,0.5,0.9,0.7,1.6,0.7c0.4,0,0.7,0,1.1-0.1v-1.7H133V88.4z"></path>
	<path class="st2" d="M145.1,93.1h-1.7v-6.8h-2.2v-1.4h6.2v1.4h-2.2V93.1z"></path>
	<path class="st2" d="M155.6,93.1h-1.7v-3.5h-3.3v3.5h-1.7v-8.2h1.7v3.2h3.3v-3.2h1.7V93.1z"></path>
	<path class="st2" d="M162.8,93.1h-4.7v-8.2h4.7v1.4h-3v1.8h2.8v1.4h-2.8v2.1h3V93.1z"></path>
	<path class="st2" d="M171.3,88.4h3.3v4.3c-0.5,0.2-1,0.3-1.5,0.4c-0.5,0.1-0.9,0.1-1.4,0.1c-1.2,0-2.2-0.4-2.8-1.1   c-0.7-0.7-1-1.8-1-3.1c0-1.3,0.4-2.4,1.1-3.1c0.8-0.7,1.8-1.1,3.2-1.1c0.8,0,1.7,0.2,2.4,0.5l-0.6,1.4c-0.6-0.3-1.2-0.4-1.9-0.4   c-0.8,0-1.4,0.3-1.8,0.8c-0.5,0.5-0.7,1.2-0.7,2c0,0.9,0.2,1.6,0.5,2s0.9,0.7,1.6,0.7c0.4,0,0.7,0,1.1-0.1v-1.7h-1.6V88.4z"></path>
	<path class="st2" d="M184.3,88.9c0,1.4-0.3,2.4-1,3.1c-0.7,0.7-1.6,1.1-2.9,1.1s-2.2-0.4-2.9-1.1c-0.7-0.7-1-1.8-1-3.1   s0.3-2.4,1-3.1s1.6-1.1,2.9-1.1s2.2,0.4,2.9,1.1C184,86.5,184.3,87.6,184.3,88.9z M178.3,88.9c0,0.9,0.2,1.6,0.5,2.1   c0.3,0.5,0.9,0.7,1.6,0.7c1.4,0,2.1-0.9,2.1-2.8c0-1.8-0.7-2.8-2.1-2.8c-0.7,0-1.2,0.2-1.6,0.7C178.5,87.3,178.3,88,178.3,88.9z"></path>
	<path class="st2" d="M186.4,93.1v-8.2h1.7v6.8h3.3v1.4H186.4z"></path>
	<path class="st2" d="M200,88.9c0,1.4-0.4,2.4-1.2,3.1s-1.9,1.1-3.3,1.1h-2.3v-8.2h2.6c1.3,0,2.4,0.4,3.1,1.1   C199.6,86.6,200,87.6,200,88.9z M198.2,88.9c0-1.8-0.8-2.6-2.3-2.6h-0.9v5.3h0.7C197.4,91.6,198.2,90.7,198.2,88.9z"></path>
	<path class="st2" d="M206.8,93.1H202v-8.2h4.7v1.4h-3v1.8h2.8v1.4h-2.8v2.1h3V93.1z"></path>
	<path class="st2" d="M216.1,93.1h-2.2l-3.6-6.2h-0.1c0.1,1.1,0.1,1.9,0.1,2.3v3.9h-1.6v-8.2h2.2l3.6,6.1h0   c-0.1-1.1-0.1-1.8-0.1-2.3v-3.9h1.6V93.1z"></path>
	<path class="st2" d="M223.6,89.9v3.2h-1.7v-8.2h2.4c1.1,0,1.9,0.2,2.5,0.6c0.5,0.4,0.8,1,0.8,1.9c0,0.5-0.1,0.9-0.4,1.3   c-0.3,0.4-0.6,0.7-1.1,0.9c1.2,1.8,2,3,2.4,3.6h-1.9l-2-3.2H223.6z M223.6,88.5h0.6c0.5,0,1-0.1,1.2-0.3c0.3-0.2,0.4-0.5,0.4-0.9   c0-0.4-0.1-0.7-0.4-0.8s-0.7-0.2-1.2-0.2h-0.5V88.5z"></path>
	<path class="st2" d="M236.5,84.9v5.3c0,0.6-0.1,1.1-0.4,1.6s-0.7,0.8-1.2,1s-1.1,0.4-1.8,0.4c-1.1,0-1.9-0.3-2.5-0.8   s-0.9-1.3-0.9-2.2v-5.3h1.7v5c0,0.6,0.1,1.1,0.4,1.4c0.3,0.3,0.7,0.4,1.3,0.4c0.6,0,1-0.1,1.2-0.4c0.3-0.3,0.4-0.8,0.4-1.4v-5   H236.5z"></path>
	<path class="st2" d="M238.8,93.1v-8.2h1.7v6.8h3.3v1.4H238.8z"></path>
	<path class="st2" d="M250.4,93.1h-4.7v-8.2h4.7v1.4h-3v1.8h2.8v1.4h-2.8v2.1h3V93.1z"></path>
	<path class="st2" d="M259,93.1h-1.7v-6.8H255v-1.4h6.2v1.4H259V93.1z"></path>
	<path class="st2" d="M270.3,88.9c0,1.4-0.3,2.4-1,3.1c-0.7,0.7-1.6,1.1-2.9,1.1s-2.2-0.4-2.9-1.1c-0.7-0.7-1-1.8-1-3.1   s0.3-2.4,1-3.1s1.6-1.1,2.9-1.1s2.2,0.4,2.9,1.1C269.9,86.5,270.3,87.6,270.3,88.9z M264.3,88.9c0,0.9,0.2,1.6,0.5,2.1   c0.3,0.5,0.9,0.7,1.6,0.7c1.4,0,2.1-0.9,2.1-2.8c0-1.8-0.7-2.8-2.1-2.8c-0.7,0-1.2,0.2-1.6,0.7C264.4,87.3,264.3,88,264.3,88.9z"></path>
	<path class="st2" d="M275.6,93.1v-8.2h1.7v6.8h3.3v1.4H275.6z"></path>
	<path class="st2" d="M282.5,93.1v-8.2h1.7v8.2H282.5z"></path>
	<path class="st2" d="M288.3,93.1h-1.7v-8.2h4.7v1.4h-3v2.1h2.8v1.4h-2.8V93.1z"></path>
	<path class="st2" d="M298,93.1h-4.7v-8.2h4.7v1.4h-3v1.8h2.8v1.4H295v2.1h3V93.1z"></path>
</g>
<g class="st1">
	<path class="st2" d="M301.7,87.7h-0.8v-3.2h-1.1v-0.7h2.9v0.7h-1.1V87.7z"></path>
	<path class="st2" d="M305,87.7l-0.9-3.1h0c0,0.6,0.1,1,0.1,1.2v1.8h-0.7v-3.9h1.1l0.9,3h0l1-3h1.1v3.9h-0.8v-1.8c0-0.1,0-0.2,0-0.3   c0-0.1,0-0.4,0-0.9h0l-1,3.1H305z"></path>
</g>
<rect x="99.7" y="73.8" class="st3" width="207.1" height="1"></rect>
</svg>
